<?xml version="1.0" encoding="UTF-8" standalone="no"?>
<svg
  width="317"
  height="66"
  viewBox="0 0 317 296"
  fill="none"
  xmlns="http://www.w3.org/2000/svg"
>
  <path
    d="M32.786 190.583C50.8932 190.583 65.572 175.904 65.572 157.797C65.572 139.69 50.8932 125.011 32.786 125.011C14.6788 125.011 0 139.69 0 157.797C0 175.904 14.6788 190.583 32.786 190.583Z"
    fill="#D39852"
  />
  <path
    opacity="0.15"
    d="M32.786 190.583C50.8932 190.583 65.572 175.904 65.572 157.797C65.572 139.69 50.8932 125.011 32.786 125.011C14.6788 125.011 0 139.69 0 157.797C0 175.904 14.6788 190.583 32.786 190.583Z"
    fill="black"
  />
  <path
    d="M284.116 190.583C302.223 190.583 316.902 175.904 316.902 157.797C316.902 139.69 302.223 125.011 284.116 125.011C266.009 125.011 251.33 139.69 251.33 157.797C251.33 175.904 266.009 190.583 284.116 190.583Z"
    fill="#D39852"
  />
  <path
    opacity="0.15"
    d="M284.116 190.583C302.223 190.583 316.902 175.904 316.902 157.797C316.902 139.69 302.223 125.011 284.116 125.011C266.009 125.011 251.33 139.69 251.33 157.797C251.33 175.904 266.009 190.583 284.116 190.583Z"
    fill="black"
  />
  <path
    d="M158.451 63.71C86.8351 63.71 28.7791 121.766 28.7791 193.382V295.699H288.123V193.381C288.123 121.766 230.067 63.71 158.451 63.71Z"
    fill="#D39852"
  />
  <path
    opacity="0.2"
    d="M158.451 63.71C101.223 63.71 52.659 100.783 35.453 152.222C37.276 153.559 39.397 154.534 41.724 155.024C54.752 157.77 67.854 160.04 81.003 161.856C81.001 161.859 80.999 161.861 80.997 161.864C83.502 172.83 125.638 189.915 158.451 189.915C191.264 189.915 233.4 172.831 235.905 161.864C235.903 161.861 235.901 161.859 235.899 161.856C249.048 160.04 262.15 157.77 275.178 155.024C277.505 154.533 279.625 153.558 281.449 152.222C264.243 100.783 215.679 63.71 158.451 63.71Z"
    fill="#AC6A22"
  />
  <path
    d="M275.178 145.629C198.205 161.853 118.696 161.853 41.7231 145.629C34.1781 144.039 28.7781 137.382 28.7781 129.672C28.7781 58.056 86.8341 0 158.45 0C230.066 0 288.122 58.056 288.122 129.672C288.123 137.382 282.723 144.039 275.178 145.629Z"
    fill="#FCDF81"
  />
  <path
    opacity="0.2"
    d="M41.7241 145.629C74.9641 152.635 108.676 156.609 142.453 157.564C82.9531 133.083 82.8711 51.978 117.194 6.70496C65.8061 23.939 28.7791 72.4799 28.7791 129.672C28.7791 137.382 34.1791 144.039 41.7241 145.629Z"
    fill="#AC6A22"
  />
  <path
    d="M158.451 180.52C191.264 180.52 233.4 163.436 235.905 152.469C218.259 126.609 183.461 117.001 158.451 117.001C133.441 117.001 98.6421 126.609 80.9971 152.469C83.5021 163.436 125.638 180.52 158.451 180.52Z"
    fill="#F3BB62"
  />
  <path
    opacity="0.2"
    d="M132.688 120.086C113.181 124.69 93.0721 134.773 80.9971 152.47C83.5021 163.436 125.638 180.521 158.451 180.521C165.956 180.521 173.949 179.625 181.844 178.115C141.478 175.104 123.599 135.242 132.688 120.086Z"
    fill="#AC6A22"
  />
  <path
    d="M158.456 117.007C185.645 117.007 207.686 94.9659 207.686 67.7769C207.686 40.5879 185.645 18.5469 158.456 18.5469C131.267 18.5469 109.226 40.5879 109.226 67.7769C109.226 94.9659 131.267 117.007 158.456 117.007Z"
    fill="#F3BB62"
  />
  <path
    d="M158.456 93.4569C172.639 93.4569 184.136 81.9596 184.136 67.7769C184.136 53.5943 172.639 42.0969 158.456 42.0969C144.273 42.0969 132.776 53.5943 132.776 67.7769C132.776 81.9596 144.273 93.4569 158.456 93.4569Z"
    fill="white"
  />
  <path
    d="M80.3561 241.197C95.7284 241.197 108.19 231.271 108.19 219.027C108.19 206.783 95.7284 196.857 80.3561 196.857C64.9838 196.857 52.5221 206.783 52.5221 219.027C52.5221 231.271 64.9838 241.197 80.3561 241.197Z"
    fill="#F895C6"
  />
  <path
    d="M236.546 241.197C251.918 241.197 264.38 231.271 264.38 219.027C264.38 206.783 251.918 196.857 236.546 196.857C221.174 196.857 208.712 206.783 208.712 219.027C208.712 231.271 221.174 241.197 236.546 241.197Z"
    fill="#F895C6"
  />
  <path
    d="M96.572 204.412C92.43 204.412 89.072 201.054 89.072 196.912V187.083C89.072 182.941 92.43 179.583 96.572 179.583C100.714 179.583 104.072 182.941 104.072 187.083V196.912C104.072 201.054 100.714 204.412 96.572 204.412Z"
    fill="#495059"
  />
  <path
    d="M220.33 204.412C216.188 204.412 212.83 201.054 212.83 196.912V187.083C212.83 182.941 216.188 179.583 220.33 179.583C224.472 179.583 227.83 182.941 227.83 187.083V196.912C227.83 201.054 224.472 204.412 220.33 204.412Z"
    fill="#495059"
  />
  <path
    d="M158.451 274.993C150.779 274.993 143.483 271.671 138.434 265.878C135.712 262.755 136.038 258.018 139.16 255.296C142.282 252.574 147.02 252.899 149.741 256.022C151.941 258.545 155.115 259.993 158.45 259.993C161.785 259.993 164.96 258.546 167.16 256.022C169.882 252.898 174.619 252.574 177.741 255.296C180.864 258.018 181.189 262.755 178.467 265.878C173.419 271.671 166.123 274.993 158.451 274.993Z"
    fill="#495059"
  />
  <path
    d="M172.949 211.595C163.444 209.107 153.459 209.107 143.954 211.595C140.018 212.625 136.588 215.047 134.3 218.412C131.21 222.956 132.986 229.189 138.007 231.422L151.935 237.616C156.083 239.461 160.819 239.461 164.968 237.616L178.896 231.422C183.917 229.189 185.693 222.956 182.603 218.412C180.315 215.047 176.885 212.625 172.949 211.595Z"
    fill="#495059"
  />
</svg>
